<?xml version="1.0" standalone="no"?>
<!DOCTYPE svg PUBLIC "-//W3C//DTD SVG 20010904//EN"
 "http://www.w3.org/TR/2001/REC-SVG-20010904/DTD/svg10.dtd">
<svg version="1.0" xmlns="http://www.w3.org/2000/svg"
 width="3000.000000pt" height="1800.000000pt" viewBox="0 0 3000.000000 1800.000000"
 preserveAspectRatio="xMidYMid meet">
<metadata>
Created by potrace 1.16, written by Peter Selinger 2001-2019
</metadata>
<g transform="translate(0.000000,1800.000000) scale(0.100000,-0.100000)"
fill="#000000" stroke="none">
<path d="M14519 15296 c-3 -3 -1924 -16 -2380 -16 l-157 0 -6 -277 c-3 -153
-9 -1836 -12 -3739 l-6 -3462 25 -16 c32 -22 47 -16 232 94 351 208 1605 993
1855 1160 631 422 1018 819 1095 1125 19 76 19 177 0 243 -21 70 -97 167 -170
217 -33 22 -139 73 -235 112 -1124 462 -1045 427 -1135 498 -246 191 -411 412
-450 600 -49 235 28 445 244 668 248 256 631 483 1141 677 320 122 945 372
1298 519 568 237 1349 575 1365 590 12 12 -138 176 -234 257 -193 163 -340
259 -572 374 -262 131 -536 231 -842 308 -280 71 -288 72 -689 72 -200 0 -365
-2 -367 -4z"/>
<path d="M17165 14097 c-379 -212 -1084 -673 -1865 -1220 -243 -170 -338 -245
-435 -342 -244 -244 -281 -453 -114 -630 115 -121 306 -210 618 -286 313 -77
653 -227 853 -377 82 -61 244 -212 240 -224 -1 -4 6 -4 15 -1 10 4 14 2 10 -5
-5 -7 5 -9 30 -7 26 2 33 1 22 -7 -12 -8 -12 -9 0 -6 8 2 15 12 17 23 3 22 22
35 41 28 8 -3 13 2 13 16 0 17 6 21 28 20 23 -2 24 -2 5 -6 -13 -2 -23 -9 -23
-14 0 -15 33 -10 68 11 18 11 41 20 51 20 10 0 24 7 31 15 11 13 15 13 21 3 6
-9 9 -10 9 -1 0 7 17 15 38 19 20 4 42 11 48 15 6 5 18 7 27 3 8 -3 18 -1 21
4 3 6 14 8 25 5 10 -2 25 3 34 12 9 9 35 17 57 18 26 1 39 5 36 13 -3 7 3 10
15 7 10 -3 17 -9 14 -13 -2 -4 10 -4 28 0 17 4 31 12 30 17 -1 6 5 14 13 17
11 4 15 2 11 -8 -7 -17 8 -24 40 -18 19 4 21 7 12 18 -9 11 -7 14 10 14 11 0
21 -5 21 -12 0 -6 3 -8 7 -5 3 4 13 1 21 -5 11 -10 17 -9 26 2 16 21 62 24 70
5 3 -8 14 -15 25 -15 14 0 19 5 15 15 -4 10 0 15 11 15 9 0 14 -4 10 -9 -3 -5
3 -12 14 -16 23 -7 71 4 71 16 0 5 5 9 10 9 6 0 10 -7 10 -15 0 -8 9 -15 20
-15 11 0 20 5 20 10 0 6 9 10 20 10 11 0 20 -7 20 -15 0 -8 6 -15 13 -16 6 0
26 -3 42 -5 17 -3 53 -6 80 -7 28 -1 56 -8 63 -14 7 -7 26 -13 42 -13 16 0 32
-4 35 -10 9 -15 25 -12 25 5 0 8 5 15 11 15 6 0 8 -9 4 -20 -7 -22 5 -26 23
-8 9 9 12 9 12 -1 0 -7 4 -10 9 -6 5 3 17 -3 27 -12 12 -13 19 -14 22 -5 5 15
23 16 20 1 -2 -6 3 -14 10 -16 6 -3 12 0 12 6 0 6 5 11 11 11 6 0 8 -9 4 -20
-5 -14 -2 -20 9 -20 9 0 16 -4 16 -9 0 -8 8 -8 39 -2 2 1 -2 7 -9 15 -10 13
-8 13 13 3 14 -6 23 -15 21 -18 -6 -11 24 -31 36 -24 6 4 11 1 9 -6 -3 -27 1
-35 20 -35 11 0 17 4 15 8 -3 4 -1 8 5 8 5 0 11 -8 14 -17 2 -10 5 -2 5 17 1
19 5 64 11 100 27 173 24 663 -5 860 -70 486 -163 805 -353 1220 -150 328
-397 711 -612 953 l-34 38 -150 -84z"/>
<path d="M15540 8521 c-5 -9 -10 -12 -10 -7 0 5 -8 2 -17 -5 -15 -12 -16 -12
-8 1 5 8 -43 -32 -106 -90 -62 -58 -141 -127 -174 -155 -33 -27 -62 -52 -65
-55 -34 -36 -368 -282 -420 -310 -33 -18 -15 -25 115 -45 198 -29 503 -30 645
0 14 3 52 10 85 16 33 6 108 22 167 36 88 21 105 28 100 42 -5 13 -3 14 10 3
13 -11 16 -9 16 13 0 22 -3 24 -16 13 -12 -10 -14 -10 -8 0 5 8 0 12 -16 13
-13 0 -18 3 -12 5 17 7 6 38 -17 52 -15 9 -19 9 -19 0 0 -6 -6 -3 -14 8 -9 12
-11 21 -4 25 5 4 3 13 -7 23 -9 9 -13 16 -8 16 4 0 1 6 -8 13 -9 7 -19 24 -23
40 -3 15 -11 27 -16 27 -6 0 -10 6 -10 14 0 8 -7 16 -15 20 -8 3 -15 12 -15
21 0 8 -5 15 -11 15 -6 0 -9 -7 -5 -15 3 -8 1 -15 -4 -15 -13 0 -13 27 0 35
14 8 0 37 -16 31 -8 -3 -11 0 -8 9 6 16 -33 105 -46 105 -5 0 -7 7 -4 15 3 8
-1 24 -10 37 -20 29 -22 66 -3 49 10 -8 14 -7 14 2 0 19 -26 17 -37 -2z"/>
<path d="M3870 7764 c0 -47 28 -102 75 -150 55 -55 137 -94 280 -135 78 -22
93 -23 750 -29 746 -8 733 -6 945 -83 285 -102 476 -302 577 -604 38 -116 39
-118 67 -115 42 5 69 -4 102 -35 64 -60 161 -139 189 -154 17 -9 56 -24 88
-34 56 -17 74 -34 40 -36 -55 -3 -125 1 -178 10 -33 5 -98 10 -145 10 l-85 1
0 -147 c-1 -197 -39 -397 -113 -591 l-20 -52 161 4 c89 2 183 5 210 5 26 1 47
5 47 11 0 5 -26 24 -57 40 -104 56 -171 95 -190 111 -10 8 -31 21 -48 29 -58
26 3 23 68 -4 34 -14 107 -41 162 -61 55 -20 118 -44 140 -55 34 -16 47 -17
85 -9 25 6 65 9 90 6 85 -9 95 18 23 59 -27 15 -55 33 -63 40 -9 8 -38 25 -65
40 -28 14 -59 34 -70 44 -11 10 -32 23 -47 29 -29 11 -38 31 -15 31 8 0 92
-27 187 -60 95 -33 174 -60 175 -60 1 0 7 18 14 39 41 137 53 438 26 643 -48
366 -213 672 -468 872 -259 202 -534 318 -912 383 -89 15 -208 17 -1062 20
-897 4 -963 3 -963 -13z"/>
<path d="M24346 7762 c32 -29 205 -151 235 -166 19 -10 53 -34 74 -53 22 -19
51 -41 66 -48 24 -13 27 -13 32 5 4 17 9 18 36 9 17 -6 31 -14 31 -19 0 -4 9
-10 21 -13 13 -4 18 -10 13 -18 -4 -8 -3 -10 4 -5 7 4 12 2 12 -3 0 -6 7 -11
15 -11 8 0 15 -7 15 -15 0 -8 5 -15 10 -15 13 0 13 2 -5 36 -8 16 -15 23 -15
16 0 -7 -5 -10 -11 -6 -8 4 -8 9 0 17 7 7 8 37 4 84 l-6 74 31 -18 c30 -17 32
-17 50 3 24 26 34 86 20 125 l-10 29 -232 0 c-167 0 -235 -3 -244 -12 -9 -9
-12 -9 -12 0 0 8 -23 12 -72 12 -40 0 -68 -4 -62 -8z"/>
<path d="M19850 7721 c-297 -66 -485 -199 -585 -416 -55 -119 -70 -192 -70
-355 0 -133 3 -151 28 -225 51 -143 137 -258 279 -372 103 -82 208 -142 408
-232 l183 -83 206 16 c113 9 314 23 446 31 132 8 267 18 300 21 l60 7 -35 29
c-84 72 -244 165 -502 291 -243 118 -300 142 -271 113 23 -23 -7 -132 -34
-122 -6 3 -14 -2 -17 -10 -3 -8 -12 -14 -21 -14 -8 0 -15 -6 -15 -12 0 -8 -13
-13 -32 -13 -20 1 -32 6 -31 13 4 19 -7 14 -15 -6 -6 -15 -12 -17 -39 -10 -19
5 -33 15 -33 24 0 23 -29 29 -44 9 -11 -16 -13 -16 -13 -1 0 9 4 16 7 16 4 0
1 15 -8 34 -8 19 -20 32 -26 30 -7 -3 -10 15 -9 53 2 42 0 52 -6 38 -9 -18
-10 -17 -10 8 -1 18 4 27 14 27 8 0 15 7 15 15 0 22 39 57 53 48 7 -4 5 2 -3
12 -8 10 -10 16 -3 12 6 -4 13 -2 15 5 2 6 -32 39 -76 72 -43 33 -109 90 -146
127 -108 108 -136 190 -106 308 27 106 92 178 191 211 60 21 66 29 54 73 -5
20 -14 37 -19 37 -6 0 -6 10 0 25 5 14 7 25 5 25 -3 0 4 15 14 33 12 21 25 31
37 30 11 -2 35 -4 55 -6 20 -2 42 -8 49 -12 9 -5 11 -4 6 3 -11 19 2 14 25 -9
11 -11 27 -18 35 -15 8 3 17 -1 20 -8 3 -8 14 -16 24 -19 16 -4 18 0 15 34 -4
43 4 49 23 18 8 -12 19 -18 28 -15 8 3 14 1 14 -3 0 -5 -7 -11 -15 -15 -8 -3
-15 -15 -15 -27 0 -13 5 -19 13 -16 17 7 22 -54 5 -65 -11 -6 -10 -8 0 -8 7 0
10 -5 7 -10 -5 -8 -11 -8 -19 0 -16 13 -64 9 -70 -5 -2 -7 1 -12 7 -12 122 -8
341 -62 480 -119 185 -76 271 -56 306 71 30 111 -56 188 -289 258 -181 55
-288 69 -535 73 -197 3 -242 1 -315 -15z"/>
<path d="M18208 7558 c-8 -13 -22 -45 -33 -73 -77 -210 -241 -423 -368 -477
-146 -62 -259 -136 -302 -198 -18 -26 -25 -49 -25 -84 0 -41 5 -53 33 -81 41
-41 89 -55 188 -55 60 0 79 -4 92 -18 14 -15 16 -94 20 -712 3 -624 5 -702 21
-765 39 -151 122 -273 231 -335 67 -38 190 -70 269 -70 138 0 335 63 433 137
89 68 153 194 169 332 8 72 -8 104 -62 127 -67 28 -135 -4 -239 -114 l-52 -55
-75 -5 c-72 -4 -75 -3 -96 23 l-22 28 0 697 c0 636 1 699 16 711 12 10 64 16
188 19 190 6 228 17 269 74 17 25 22 45 22 98 0 57 -4 70 -25 93 -48 51 -66
55 -255 55 -162 0 -177 2 -195 20 -19 19 -20 33 -20 285 0 294 -5 321 -59 349
-46 24 -106 21 -123 -6z"/>
<path d="M24626 7433 c8 -39 136 -157 209 -193 62 -31 116 -42 125 -26 3 5
-36 39 -87 75 -50 36 -104 77 -120 91 -24 22 -118 80 -129 80 -3 0 -2 -12 2
-27z"/>
<path d="M4528 7185 c-78 -29 -123 -79 -165 -185 -17 -42 -18 -115 -23 -992
l-5 -946 -31 -39 c-40 -49 -89 -77 -194 -109 -110 -34 -150 -55 -188 -98 -26
-30 -52 -89 -52 -118 0 -5 390 -8 868 -8 968 0 1095 6 1147 54 36 34 81 53
143 61 31 4 56 13 59 21 10 27 21 3 13 -27 -8 -26 -6 -29 8 -25 9 2 53 14 97
26 80 22 127 43 243 107 l62 35 -24 19 c-33 26 -51 24 -64 -6 -14 -30 -18 -30
-84 -5 -56 21 -122 26 -161 11 -17 -7 -40 -3 -82 11 -59 19 -72 19 -150 -1
-31 -8 -43 -7 -56 5 -8 7 -26 14 -40 14 -13 0 -31 5 -39 10 -23 15 -1 25 105
50 49 12 121 33 159 46 72 25 140 31 151 14 8 -12 59 -40 88 -47 12 -3 97 -7
189 -10 l168 -6 57 44 c67 52 213 188 213 198 0 5 -71 11 -157 14 -204 9 -413
28 -413 39 0 11 -72 7 -87 -5 -7 -5 -13 -6 -13 -2 0 5 -28 -19 -63 -52 -160
-154 -371 -245 -629 -273 -54 -5 -201 -10 -328 -10 -227 0 -263 4 -282 34 -4
6 -8 140 -8 297 l0 287 -34 -34 c-41 -41 -89 -46 -130 -13 -49 38 -52 57 -15
90 44 39 104 40 149 3 l31 -27 -3 649 c-3 638 -4 650 -26 714 -27 82 -80 145
-146 176 -42 19 -67 24 -136 23 -47 0 -102 -7 -122 -14z m439 -2325 c72 -12
91 -42 52 -81 -19 -19 -30 -21 -101 -17 -73 3 -82 6 -105 32 -13 16 -23 38
-21 49 5 36 41 40 175 17z"/>
<path d="M24632 7126 l3 -68 100 -54 c101 -54 119 -62 113 -45 -7 22 -153 181
-202 220 -16 13 -17 10 -14 -53z"/>
<path d="M24787 7132 c8 -31 276 -302 298 -302 11 0 28 7 38 14 25 19 17 30
-117 152 -108 99 -157 135 -203 148 -17 6 -20 3 -16 -12z"/>
<path d="M24630 6966 c0 -32 6 -37 168 -143 185 -122 203 -131 222 -108 19 23
4 60 -37 93 -37 29 -330 192 -345 192 -5 0 -8 -15 -8 -34z"/>
<path d="M8595 6935 c-253 -39 -429 -127 -582 -288 -183 -195 -280 -468 -308
-868 -7 -92 -6 -97 16 -118 26 -24 30 -80 9 -107 -14 -16 -7 -131 9 -147 4 -4
28 20 52 54 46 65 73 98 127 155 17 19 32 40 32 47 1 7 18 31 39 55 37 42 37
43 55 23 18 -19 17 -21 -9 -45 -19 -17 -25 -31 -20 -45 4 -14 0 -21 -13 -25
-28 -9 -114 -136 -92 -136 6 0 10 5 10 10 0 6 10 10 23 10 13 0 41 13 63 30
21 16 43 30 48 30 5 0 17 6 25 14 9 7 27 17 41 21 22 6 21 3 -15 -34 -21 -22
-45 -41 -52 -41 -7 0 -18 -9 -25 -20 -7 -10 -46 -43 -87 -72 -98 -69 -151
-121 -151 -146 0 -12 -4 -24 -10 -27 -12 -8 29 -119 75 -201 l34 -61 113 -7
c62 -3 226 -11 363 -16 l250 -10 48 25 c56 29 81 31 128 11 28 -12 40 -12 82
1 27 8 51 12 54 9 9 -9 -7 -24 -34 -31 -32 -8 -63 -32 -63 -50 0 -15 33 -45
49 -45 7 0 24 -9 38 -20 36 -28 66 -25 126 13 98 63 115 56 41 -17 -25 -25
-44 -51 -42 -58 3 -7 20 -22 40 -33 20 -11 49 -30 65 -42 l29 -21 65 27 c292
123 511 417 544 729 5 47 2 63 -14 89 -27 42 -58 62 -112 69 l-45 6 -36 -73
c-120 -241 -333 -376 -647 -410 -229 -25 -406 24 -516 142 -62 66 -120 191
-143 307 -10 52 -24 97 -30 101 -6 3 -14 26 -18 50 -6 39 -5 44 9 38 15 -6 17
3 17 73 0 99 24 282 50 383 26 102 91 227 151 288 29 30 75 63 116 82 65 30
74 32 183 32 95 -1 125 -5 172 -23 119 -48 206 -166 216 -293 7 -89 6 -89
-283 -89 l-241 0 -22 -30 c-12 -16 -22 -34 -22 -40 0 -5 -20 -15 -45 -22 l-45
-12 0 -53 c0 -44 5 -58 30 -85 l29 -33 1 36 c0 53 18 96 42 102 24 7 109 -8
138 -23 11 -6 24 -19 30 -30 14 -26 13 -97 -2 -103 -27 -11 861 -7 912 4 66
14 117 57 126 107 9 48 -12 207 -42 310 -94 323 -322 513 -684 567 -115 18
-354 18 -465 0z m-414 -1040 c36 -19 54 -58 39 -85 -12 -22 -106 -53 -147 -48
-23 3 -29 10 -40 57 -8 30 -10 57 -6 62 10 10 72 27 101 28 13 1 36 -6 53 -14z
m1336 -614 c68 -31 81 -84 41 -166 -19 -38 -26 -45 -43 -40 -36 12 -119 27
-144 27 -13 0 -38 -8 -57 -18 -28 -16 -36 -16 -58 -5 -23 13 -24 16 -11 40 22
40 136 147 175 164 46 20 48 20 97 -2z"/>
<path d="M11045 6943 c-215 -27 -430 -107 -569 -212 -64 -49 -124 -101 -98
-87 27 16 9 -10 -20 -29 -100 -63 -221 -312 -265 -545 -23 -128 -24 -444 0
-580 59 -344 202 -587 422 -719 74 -45 208 -95 315 -118 115 -24 412 -25 516
-1 218 50 396 167 535 350 99 132 239 441 239 527 0 42 -44 90 -95 101 -66 15
-73 13 -96 -32 -74 -147 -213 -316 -311 -379 -88 -57 -149 -69 -342 -69 -128
0 -186 4 -227 16 -189 55 -304 190 -363 426 -55 214 -59 419 -12 603 53 207
137 325 283 397 85 42 86 42 197 42 93 0 119 -3 159 -21 43 -20 47 -25 47 -57
0 -53 7 -62 43 -58 24 3 38 -2 56 -22 21 -22 22 -28 12 -54 -14 -32 -53 -58
-71 -47 -12 7 12 -58 32 -84 87 -118 241 -172 393 -136 172 40 254 156 243
344 -14 244 -233 397 -630 440 -91 10 -326 13 -393 4z m51 -1937 c11 -8 39
-19 62 -25 23 -7 42 -17 42 -23 0 -7 9 -22 21 -34 18 -19 20 -30 14 -75 -12
-87 -28 -96 -181 -103 -71 -3 -142 -11 -159 -18 -16 -6 -43 -11 -60 -12 -24
-1 -31 4 -33 22 -2 12 4 36 12 54 9 17 16 38 16 47 0 21 33 87 57 113 15 17
62 42 113 61 28 10 76 7 96 -7z"/>
<path d="M13245 6935 c-178 -28 -301 -74 -430 -160 -280 -186 -436 -527 -452
-990 -20 -580 189 -958 611 -1101 166 -57 416 -79 571 -50 420 78 696 273 825
581 39 95 73 247 67 298 -9 63 -75 117 -144 117 -25 0 -33 -9 -72 -88 -58
-112 -180 -238 -286 -294 -184 -97 -481 -134 -656 -82 -185 55 -294 182 -351
409 -18 76 -22 117 -22 260 1 421 119 702 332 787 82 33 250 32 337 -1 88 -34
165 -115 195 -205 30 -91 30 -133 1 -157 -21 -17 -44 -19 -263 -19 -270 0
-303 -5 -350 -58 -28 -33 -30 -39 -26 -98 4 -68 19 -93 73 -123 27 -14 88 -16
575 -16 l545 0 42 23 c75 40 88 101 57 277 -71 407 -317 641 -734 695 -104 13
-349 11 -445 -5z"/>
<path d="M22983 6915 c-53 -23 -75 -68 -71 -149 4 -64 6 -70 40 -101 23 -22
53 -37 88 -44 80 -17 162 -66 227 -134 32 -34 62 -60 66 -59 5 1 5 -3 1 -9 -3
-6 -3 -14 2 -18 10 -7 26 -46 61 -151 14 -41 27 -82 30 -90 4 -8 8 -26 10 -40
2 -14 6 -36 10 -50 3 -14 7 -53 8 -88 1 -70 21 -98 84 -120 34 -12 107 -7 128
10 7 6 13 4 16 -4 4 -8 6 -9 6 -1 1 6 9 9 20 6 10 -3 32 2 49 11 16 8 32 13
35 10 3 -3 17 2 31 11 18 12 26 14 26 5 0 -10 3 -10 15 0 8 7 15 9 15 5 0 -4
7 -2 15 5 16 14 20 3 6 -19 -6 -10 -10 -10 -16 -1 -6 9 -9 9 -16 -1 -4 -7 -20
-14 -34 -16 -15 -2 -38 -11 -51 -19 -12 -9 -25 -15 -28 -15 -41 6 -143 -51
-152 -85 -7 -28 -89 -104 -113 -104 -28 0 -36 -18 -49 -110 -7 -47 -15 -94
-17 -105 -8 -28 74 -87 161 -115 38 -12 99 -35 136 -51 71 -31 145 -43 166
-27 6 6 12 23 12 38 0 35 18 50 55 47 26 -2 30 2 42 43 41 138 59 417 40 600
-46 436 -253 737 -598 874 -168 66 -380 94 -456 61z"/>
<path d="M14725 6863 c15 -79 71 -140 156 -168 71 -24 133 -68 152 -108 16
-33 17 -99 15 -805 l-3 -768 -26 -40 c-26 -39 -46 -52 -150 -97 -72 -32 -110
-80 -117 -147 l-5 -50 614 2 614 3 -3 25 c-10 83 -90 166 -185 194 -68 20
-116 52 -141 96 -21 34 -21 50 -26 930 -4 701 -8 900 -18 917 -29 52 -40 53
-478 53 l-406 0 7 -37z"/>
<path d="M16155 6885 c-122 -22 -236 -84 -276 -149 -28 -46 -25 -117 8 -177
42 -77 69 -89 205 -89 109 0 117 -1 156 -28 23 -15 53 -43 67 -62 54 -74 55
-83 55 -739 0 -597 0 -605 -21 -649 -26 -52 -60 -75 -152 -103 -100 -30 -157
-97 -157 -186 l0 -23 615 0 615 0 0 32 c0 47 -37 115 -79 144 -20 13 -59 31
-88 40 -70 20 -112 51 -137 99 -20 39 -21 56 -26 685 l-6 645 -27 90 c-83 266
-237 423 -460 469 -90 19 -195 19 -292 1z"/>
<path d="M22340 6822 c-97 -40 -141 -66 -207 -119 -90 -72 -172 -172 -222
-271 -48 -95 -47 -96 60 -19 56 40 111 79 122 87 66 46 262 186 324 232 74 55
106 101 76 112 -32 13 -91 4 -153 -22z"/>
<path d="M24630 6514 l0 -337 35 34 c19 19 35 39 35 44 0 6 11 27 25 47 14 20
25 44 25 52 0 9 4 16 9 16 14 0 105 94 118 122 5 13 17 37 24 53 8 17 20 36
27 43 18 20 15 46 -10 69 -25 21 -276 193 -283 193 -3 0 -5 -151 -5 -336z"/>
<path d="M22425 6704 c-44 -30 -119 -83 -167 -117 -214 -152 -394 -281 -401
-287 -11 -10 -56 -177 -49 -184 3 -3 35 -6 71 -6 36 -1 86 -6 111 -11 25 -6
70 -12 100 -14 30 -2 75 -12 100 -23 61 -26 107 -39 156 -45 l41 -5 17 100
c19 108 41 179 75 245 17 34 19 47 10 72 -10 29 -20 36 -43 32 -5 -1 -6 5 -2
14 3 9 -1 23 -9 31 -21 21 -19 44 4 44 21 0 34 -23 20 -37 -5 -5 -3 -17 7 -29
14 -17 15 -17 10 -1 -4 11 -2 16 5 12 6 -4 8 -13 6 -19 -4 -9 7 -13 30 -14 20
-1 33 1 30 4 -3 3 9 19 26 36 18 16 25 27 17 23 -8 -3 -5 1 7 10 21 16 21 18
6 41 -10 16 -22 23 -32 19 -8 -3 -12 -3 -8 1 4 4 2 13 -3 20 -6 6 -10 16 -9
20 4 25 -2 44 -12 38 -8 -4 -9 1 -4 15 7 25 -11 54 -28 44 -6 -4 -8 0 -4 10 3
10 5 17 4 17 -1 0 -38 -25 -82 -56z"/>
<path d="M24980 6575 c0 -8 -7 -15 -15 -15 -8 0 -15 -3 -15 -7 0 -5 -17 -26
-38 -49 -51 -56 -62 -78 -71 -136 -7 -43 -6 -48 8 -42 27 11 125 35 141 35 25
-2 104 0 125 3 57 7 87 35 65 61 -5 6 -7 15 -3 18 3 4 1 7 -5 7 -7 0 -12 7
-12 16 0 17 -64 84 -81 84 -5 0 -19 9 -31 20 -26 24 -68 27 -68 5z"/>
<path d="M24770 6252 c0 -4 -10 -12 -22 -17 -13 -6 -22 -16 -20 -23 4 -21 -28
-75 -64 -108 l-34 -31 2 -183 c3 -166 5 -182 18 -168 9 8 29 22 45 31 17 8 48
32 71 54 22 21 77 72 122 115 45 42 82 81 82 87 0 12 -45 21 -116 24 -29 1
-50 5 -47 10 2 4 0 7 -5 7 -5 0 -7 11 -4 25 2 14 -3 36 -12 50 -18 27 -21 71
-6 80 11 7 9 55 -2 55 -4 0 -8 -3 -8 -8z"/>
<path d="M20805 6065 c-99 -7 -272 -18 -385 -24 -113 -7 -224 -14 -248 -18
l-44 -6 114 -59 c326 -172 541 -358 585 -507 31 -108 -9 -254 -91 -328 -45
-41 -136 -85 -215 -103 -46 -11 -51 -14 -35 -23 11 -6 24 -15 30 -21 85 -82
191 -168 248 -201 l46 -27 52 17 c84 28 218 100 280 152 78 65 132 136 177
235 56 120 75 216 75 373 -1 114 -4 140 -28 210 -33 96 -85 186 -160 278 l-56
67 -83 -1 c-45 -1 -163 -7 -262 -14z"/>
<path d="M25198 6056 c-10 -7 -15 -16 -12 -19 3 -3 -3 -10 -14 -16 -20 -11
-37 -51 -21 -51 5 0 9 -4 9 -9 0 -14 -33 -18 -52 -7 -13 8 -24 7 -38 -2 -11
-6 -29 -12 -40 -12 -11 0 -32 -14 -47 -31 -16 -17 -41 -38 -58 -46 -56 -29
-205 -131 -242 -167 -21 -20 -41 -36 -45 -36 -5 0 -8 -139 -8 -309 0 -170 -4
-321 -9 -334 -8 -21 -6 -26 11 -30 34 -9 15 -32 -24 -29 -20 2 -39 -2 -43 -8
-4 -7 -44 -29 -89 -50 -111 -52 -156 -103 -156 -181 l0 -29 273 0 272 0 -2 55
c-1 30 2 55 7 55 16 0 1 84 -17 98 -9 6 -30 12 -45 12 -39 0 -98 26 -98 43 0
15 40 15 110 1 54 -11 82 -11 114 -2 17 4 32 4 35 -1 4 -4 22 -13 41 -19 95
-30 100 -31 100 -19 0 9 2 9 8 0 6 -9 12 -7 25 8 10 11 21 17 26 15 5 -3 19
11 33 32 23 37 24 39 20 261 l-3 223 -30 -4 c-17 -3 -34 1 -40 9 -6 7 -18 13
-25 13 -14 0 -20 19 -6 21 48 5 70 4 85 -3 16 -8 17 2 17 140 0 115 -3 153
-15 168 -8 10 -15 28 -15 39 0 11 -7 29 -15 39 -8 11 -15 28 -15 37 0 10 -6
20 -12 23 -7 3 -2 3 12 0 14 -4 30 -11 35 -17 7 -7 6 -7 -3 -2 -11 6 -12 3 -3
-14 23 -41 31 -21 31 74 0 52 -1 95 -2 95 -2 0 -11 -7 -20 -14z"/>
<path d="M21775 5955 c-3 -26 -3 -60 0 -78 6 -28 126 -275 178 -367 65 -113
107 -223 82 -214 -7 3 -24 22 -38 42 -24 36 -42 68 -143 257 -26 50 -56 104
-66 120 l-18 30 0 -44 c0 -69 29 -244 56 -339 33 -119 121 -293 188 -374 83
-100 256 -232 256 -196 0 7 -12 36 -27 63 -14 27 -32 71 -39 97 -6 26 -21 60
-32 75 -19 28 -102 188 -102 198 0 35 106 -114 123 -175 9 -30 51 -94 127
-192 12 -16 28 -28 36 -28 10 0 14 -12 14 -42 0 -24 4 -48 8 -54 20 -32 227
-80 410 -95 219 -18 381 0 414 46 5 6 8 5 8 -2 0 -14 39 -17 55 -5 6 4 18 19
28 34 16 25 16 27 0 21 -11 -4 -14 -3 -9 5 4 7 3 12 -2 12 -6 0 -8 9 -5 20 3
12 0 20 -6 20 -7 0 -9 -5 -5 -12 4 -7 3 -8 -5 -4 -7 5 -22 -3 -37 -19 -17 -19
-30 -25 -42 -19 -9 4 -21 6 -26 5 -4 -1 -5 30 -1 69 6 56 4 70 -6 70 -12 0
-12 2 0 9 7 5 10 14 6 20 -4 7 -1 18 5 26 7 8 10 22 6 30 -3 8 -1 15 5 15 5 0
9 6 8 13 -1 6 1 20 6 30 12 29 -2 32 -43 10 -56 -32 -168 -63 -224 -63 -123 0
-258 60 -343 152 -114 122 -195 372 -195 598 0 46 -4 59 -17 65 -10 4 -60 22
-111 41 -51 19 -111 43 -134 55 -41 21 -43 21 -91 4 -35 -13 -61 -16 -95 -10
-26 3 -59 6 -74 6 -21 0 -26 4 -23 20 2 11 0 17 -6 14 -5 -4 -10 0 -11 7 0 7
-2 18 -3 23 -2 6 -3 16 -4 23 0 7 -5 10 -11 7 -6 -3 -7 1 -4 9 3 9 2 16 -4 16
-5 0 -13 -20 -17 -45z"/>
<path d="M22086 5971 c-5 -7 80 -51 99 -51 3 0 43 -18 89 -40 46 -22 88 -40
95 -40 6 0 11 18 11 44 0 55 -14 60 -170 67 -30 2 -69 9 -87 16 -18 7 -34 9
-37 4z"/>
<path d="M19230 5306 c0 -475 0 -484 20 -489 11 -3 20 -13 20 -22 0 -9 -9 -19
-20 -22 -27 -7 -30 -83 -2 -83 84 0 199 90 187 148 -2 12 0 22 4 22 8 0 23 53
26 90 2 21 16 53 32 68 7 7 13 21 13 30 0 19 47 45 63 35 6 -3 7 -1 3 5 -6 10
82 60 121 67 10 2 19 4 19 4 1 1 -31 34 -70 74 -81 82 -118 146 -170 294 -49
143 -57 155 -136 212 -120 88 -110 128 -110 -433z"/>
<path d="M6367 5481 c-31 -52 -54 -91 -50 -87 4 3 19 -6 34 -20 l28 -27 307 2
306 1 32 43 c18 23 42 59 55 80 21 35 22 37 4 37 -11 0 -41 7 -67 16 -44 15
-52 15 -104 0 -65 -19 -223 -54 -297 -66 -27 -4 -74 -15 -104 -24 -30 -9 -77
-16 -105 -16 -47 1 -49 2 -32 15 11 8 28 15 38 15 10 0 64 15 120 34 57 18
124 37 150 40 26 4 50 11 53 16 12 20 -38 29 -172 32 l-140 3 -56 -94z"/>
<path d="M23385 5324 c-8 -20 -15 -40 -15 -43 0 -4 -13 -28 -30 -54 -17 -27
-25 -49 -19 -53 5 -3 9 -13 8 -22 -5 -29 11 -60 31 -65 14 -4 20 0 20 13 0 11
7 17 18 16 9 0 16 5 15 12 -3 13 35 16 53 4 6 -4 16 -16 22 -27 6 -11 20 -21
33 -22 12 -1 25 -7 29 -13 6 -10 60 -7 93 6 15 6 17 3 11 -20 -3 -15 -2 -26 4
-26 6 0 8 -9 5 -20 -3 -11 -1 -20 5 -20 6 0 9 -12 6 -26 -10 -56 -7 -77 9 -68
9 6 9 4 -1 -8 -10 -12 -10 -18 -2 -23 15 -9 116 94 164 167 34 51 40 88 15 88
-5 0 -9 7 -9 15 0 8 -14 22 -31 31 -23 11 -29 12 -23 2 4 -7 -6 0 -22 15 -16
16 -62 45 -104 64 -41 19 -108 51 -147 70 -40 19 -77 32 -82 28 -5 -3 -12 -1
-16 5 -12 19 -25 10 -40 -26z"/>
<path d="M19967 5047 c4 -6 10 -47 14 -92 1 -5 -4 -40 -10 -78 -11 -67 -40
-117 -68 -117 -7 0 -13 -5 -13 -11 0 -5 -4 -8 -9 -4 -5 3 -12 2 -15 -3 -3 -5
0 -9 7 -10 7 -1 64 -9 127 -17 166 -24 513 -25 645 -2 54 10 100 19 102 21 5
5 -131 95 -161 106 -25 9 -32 8 -49 -10 -13 -14 -27 -20 -41 -16 -17 4 -25 -2
-36 -27 -8 -18 -15 -41 -15 -51 0 -11 -7 -21 -15 -23 -13 -4 -13 -3 0 6 9 7
10 11 3 11 -6 0 -14 -4 -18 -9 -7 -13 -109 -5 -113 9 -2 5 -9 10 -16 10 -7 0
-25 11 -39 24 -14 13 -28 21 -31 18 -3 -3 -6 9 -6 27 0 19 -6 34 -15 37 -8 4
-15 12 -15 20 0 8 -6 11 -17 7 -11 -4 -14 -3 -9 6 4 6 13 11 19 10 27 -3 38 2
35 15 -2 8 0 15 4 16 4 1 23 17 43 36 20 19 43 34 51 34 8 0 13 4 10 9 -3 4
-45 11 -93 15 -48 3 -127 14 -175 24 -48 10 -84 14 -81 9z"/>
<path d="M7938 4944 c6 -11 33 -41 60 -68 l50 -48 59 11 c32 7 81 16 108 21
200 35 302 60 284 70 -8 4 -124 11 -259 14 -135 4 -260 10 -279 13 -30 5 -32
4 -23 -13z"/>
<path d="M8705 4880 c-49 -3 -103 -12 -120 -19 -36 -16 -58 -25 -105 -41 -19
-7 -54 -21 -77 -31 -24 -11 -48 -19 -55 -19 -7 0 -26 -9 -43 -20 -16 -11 -38
-20 -47 -20 -10 0 -18 -4 -18 -10 0 -17 187 -69 305 -85 178 -23 170 -25 254
52 40 36 84 75 97 85 32 26 30 41 -8 61 -18 10 -46 25 -63 35 -25 15 -45 17
-120 12z"/>
<path d="M8915 4720 c-22 -22 -56 -52 -77 -67 -21 -14 -37 -28 -34 -30 5 -5
247 44 282 58 27 10 28 12 10 23 -10 6 -34 21 -53 34 -51 33 -82 29 -128 -18z"/>
<path d="M5757 4064 c-109 -33 -171 -139 -170 -289 0 -130 48 -214 148 -261
87 -41 212 -26 278 34 26 24 70 113 60 122 -10 9 -71 30 -88 30 -6 0 -19 -18
-28 -39 -52 -118 -211 -96 -246 34 -26 95 -8 200 44 252 28 28 40 33 79 33 59
0 100 -21 118 -60 11 -25 17 -30 37 -25 13 3 36 9 52 12 36 7 37 28 6 74 -58
86 -172 119 -290 83z"/>
<path d="M11570 4065 c-121 -39 -154 -174 -62 -257 29 -26 61 -41 137 -62 115
-32 137 -47 133 -90 -4 -42 -46 -69 -106 -70 -63 -1 -98 18 -119 66 -18 40
-30 44 -92 32 -27 -6 -30 -9 -25 -33 13 -54 54 -111 97 -133 51 -26 163 -35
225 -19 50 14 105 59 122 101 17 41 8 130 -16 163 -26 35 -76 62 -153 82 -105
27 -140 44 -148 73 -9 39 26 62 94 62 44 0 58 -5 78 -25 14 -13 25 -31 25 -40
0 -16 52 -21 96 -9 20 5 21 9 12 42 -15 53 -36 81 -80 103 -52 27 -158 34
-218 14z"/>
<path d="M12142 4061 c-66 -23 -114 -68 -143 -135 -30 -65 -33 -219 -6 -278
24 -52 73 -105 121 -131 59 -32 203 -32 262 0 56 30 109 93 125 151 22 75 17
197 -11 260 -55 126 -204 183 -348 133z m186 -101 c63 -39 90 -158 61 -265
-25 -89 -118 -134 -202 -97 -70 31 -92 76 -92 187 0 103 16 144 68 175 43 27
121 26 165 0z"/>
<path d="M14537 4064 c-109 -34 -172 -141 -171 -289 2 -125 46 -209 139 -258
58 -31 202 -31 261 0 93 50 144 144 144 268 0 215 -169 342 -373 279z m184
-107 c56 -37 70 -77 67 -184 -3 -85 -5 -94 -34 -130 -59 -73 -157 -78 -222
-12 -77 79 -64 274 21 328 45 29 123 28 168 -2z"/>
<path d="M16442 4061 c-66 -23 -114 -68 -143 -135 -30 -65 -33 -219 -6 -278
24 -52 73 -105 121 -131 59 -32 203 -32 262 0 56 30 109 93 125 151 22 75 17
197 -11 260 -55 126 -204 183 -348 133z m186 -101 c63 -39 90 -158 61 -265
-25 -89 -118 -134 -202 -97 -70 31 -92 76 -92 187 0 103 16 144 68 175 43 27
121 26 165 0z"/>
<path d="M21862 4061 c-128 -44 -199 -183 -172 -333 14 -76 31 -112 78 -161
72 -74 203 -97 325 -56 34 11 77 32 95 45 l32 25 0 110 0 109 -125 0 -125 0 0
-45 0 -45 65 0 65 0 0 -40 c0 -46 -18 -62 -91 -80 -126 -32 -220 69 -206 222
6 68 30 114 77 145 64 44 187 21 205 -37 6 -20 11 -22 59 -16 28 4 55 11 59
15 13 13 -29 87 -63 111 -71 51 -185 63 -278 31z"/>
<path d="M24522 4061 c-128 -44 -199 -183 -172 -333 14 -76 31 -112 78 -161
72 -74 203 -97 325 -56 34 11 77 32 95 45 l32 25 0 110 0 109 -125 0 -125 0 0
-45 0 -45 65 0 65 0 0 -40 c0 -46 -18 -62 -91 -80 -126 -32 -220 69 -206 222
6 68 30 114 77 145 64 44 187 21 205 -37 6 -20 11 -22 59 -16 28 4 55 11 59
15 13 13 -29 87 -63 111 -71 51 -185 63 -278 31z"/>
<path d="M4500 3785 l0 -285 138 0 c157 0 199 9 248 52 58 51 77 99 82 210 5
116 -13 181 -65 239 -50 55 -105 69 -270 69 l-133 0 0 -285z m290 170 c47 -24
63 -67 64 -170 0 -98 -16 -149 -56 -174 -12 -7 -59 -16 -105 -19 l-83 -5 0
192 0 191 75 0 c48 0 87 -6 105 -15z"/>
<path d="M5070 3785 l0 -285 220 0 220 0 0 45 0 45 -160 0 -160 0 0 80 0 80
140 0 140 0 0 45 0 45 -140 0 -140 0 0 65 0 64 153 3 152 3 3 48 3 47 -215 0
-216 0 0 -285z"/>
<path d="M6180 3785 l0 -285 220 0 220 0 0 45 0 45 -160 0 -160 0 0 80 0 80
140 0 140 0 0 45 0 45 -140 0 -140 0 0 65 0 64 153 3 152 3 3 48 3 47 -215 0
-216 0 0 -285z"/>
<path d="M6720 3785 l0 -285 50 0 50 0 2 186 3 187 113 -187 113 -186 60 0 59
0 0 285 0 285 -55 0 -55 0 0 -192 0 -193 -117 193 -116 192 -54 0 -53 0 0
-285z"/>
<path d="M7260 4020 l0 -50 80 0 80 0 0 -235 0 -235 60 0 60 0 0 235 0 235 80
0 80 0 0 50 0 50 -220 0 -220 0 0 -50z"/>
<path d="M7780 3786 l0 -286 55 0 55 0 0 120 0 120 38 0 c58 0 92 -29 162
-138 l65 -102 68 0 67 0 -51 83 c-28 45 -69 100 -90 122 -43 44 -47 55 -24 55
29 0 76 31 95 63 25 41 26 120 2 167 -33 65 -64 75 -264 78 l-178 4 0 -286z
m324 168 c27 -27 31 -63 9 -92 -19 -26 -25 -27 -122 -30 l-101 -3 0 71 0 70
99 0 c77 0 103 -4 115 -16z"/>
<path d="M8517 4063 c-3 -4 -49 -123 -102 -263 -54 -140 -101 -265 -106 -278
-9 -23 -8 -23 52 -20 l62 3 21 60 21 60 116 3 117 3 23 -66 23 -65 58 0 c32 0
58 3 58 8 0 4 -49 131 -109 282 l-109 275 -60 3 c-33 2 -62 -1 -65 -5z m102
-226 c18 -50 36 -98 38 -104 4 -10 -14 -13 -69 -13 -41 0 -77 2 -80 5 -6 6 63
205 71 205 4 0 21 -42 40 -93z"/>
<path d="M9420 3785 l0 -285 55 0 55 0 0 285 0 285 -55 0 -55 0 0 -285z"/>
<path d="M9630 4020 l0 -49 128 -3 129 -3 -148 -180 -148 -180 -1 -52 0 -53
230 0 230 0 0 45 0 45 -161 2 -161 3 156 190 c152 186 156 191 156 238 l0 47
-205 0 -205 0 0 -50z"/>
<path d="M10130 3785 l0 -285 215 0 215 0 0 45 0 45 -160 0 -160 0 0 80 0 80
145 0 145 0 0 45 0 45 -145 0 -145 0 0 65 0 65 155 0 155 0 0 50 0 50 -210 0
-210 0 0 -285z"/>
<path d="M10660 3785 l0 -287 158 4 c139 3 162 6 199 25 79 43 116 123 116
258 0 100 -21 166 -71 218 -52 55 -74 61 -244 65 l-158 4 0 -287z m316 152
c33 -39 47 -100 41 -183 -6 -79 -26 -127 -59 -145 -13 -7 -59 -13 -103 -13
l-80 -1 -3 189 -2 188 91 -3 c85 -4 92 -6 115 -32z"/>
<path d="M13102 3848 c3 -182 6 -228 20 -253 39 -72 104 -105 208 -105 111 0
189 44 210 119 5 20 10 132 10 249 l0 212 -55 0 -55 0 0 -205 c0 -239 -5 -257
-70 -275 -54 -15 -114 2 -138 37 -14 23 -17 58 -20 235 l-4 208 -55 0 -55 0 4
-222z"/>
<path d="M13640 4020 l0 -50 85 0 85 0 0 -235 0 -235 55 0 55 0 0 235 0 235
85 0 85 0 0 50 0 50 -225 0 -225 0 0 -50z"/>
<path d="M14160 3785 l0 -285 60 0 60 0 0 285 0 285 -60 0 -60 0 0 -285z"/>
<path d="M15010 3785 l0 -285 50 0 50 0 2 188 3 187 114 -187 114 -188 59 0
58 0 0 285 0 285 -55 0 -55 0 -2 -186 -3 -187 -113 187 -113 186 -55 0 -54 0
0 -285z"/>
<path d="M15810 3785 l0 -285 55 0 55 0 0 120 0 120 120 0 120 0 0 50 0 50
-120 0 -120 0 0 65 0 65 135 0 135 0 0 50 0 50 -190 0 -190 0 0 -285z"/>
<path d="M16910 3786 l0 -286 60 0 60 0 0 121 0 122 45 -6 c57 -6 69 -17 150
-138 l65 -99 66 0 66 0 -23 38 c-63 103 -113 173 -136 190 l-26 19 49 24 c60
29 88 74 88 139 0 58 -27 107 -74 135 -31 18 -56 20 -212 23 l-178 4 0 -286z
m330 164 c26 -26 26 -70 0 -98 -19 -20 -31 -22 -115 -22 l-95 0 0 70 0 70 95
0 c82 0 98 -3 115 -20z"/>
<path d="M17710 3786 l0 -286 148 0 c133 0 152 2 197 24 60 28 77 46 107 111
19 42 23 67 23 151 0 92 -3 106 -30 160 -23 44 -42 65 -79 89 -49 30 -52 30
-208 34 l-158 3 0 -286z m305 162 c40 -31 55 -77 54 -165 -1 -147 -29 -181
-158 -190 l-81 -6 0 192 0 191 79 0 c65 0 83 -4 106 -22z"/>
<path d="M18290 3785 l0 -285 215 0 215 0 0 45 0 45 -160 0 -160 0 0 80 0 80
145 0 145 0 0 45 0 45 -145 0 -145 0 0 65 0 65 155 0 155 0 0 50 0 50 -210 0
-210 0 0 -285z"/>
<path d="M18820 3785 l0 -285 55 0 55 0 0 120 0 120 120 0 120 0 0 50 0 50
-120 0 -120 0 0 65 0 65 140 0 140 0 0 50 0 50 -195 0 -195 0 0 -285z"/>
<path d="M19310 3785 l0 -285 55 0 55 0 0 285 0 285 -55 0 -55 0 0 -285z"/>
<path d="M19811 3797 c-57 -149 -106 -278 -108 -284 -4 -10 11 -13 55 -13 l60
0 23 65 23 66 115 -3 115 -3 25 -62 24 -63 59 0 c32 0 58 1 58 3 0 2 -49 128
-110 282 -60 153 -110 280 -110 281 0 2 -28 4 -62 4 l-63 0 -104 -273z m208
35 c17 -46 31 -90 31 -98 0 -11 -17 -14 -76 -14 -87 0 -83 -15 -31 128 16 46
33 80 37 75 4 -4 21 -46 39 -91z"/>
<path d="M20330 3785 l0 -285 50 0 50 0 2 188 3 187 114 -187 114 -188 59 0
58 0 0 285 0 285 -55 0 -55 0 -2 -186 -3 -187 -113 187 -113 186 -55 0 -54 0
0 -285z"/>
<path d="M20910 3785 l0 -285 138 0 c169 0 216 13 267 73 74 86 87 257 29 373
-51 102 -104 124 -301 124 l-133 0 0 -285z m285 173 c44 -20 65 -75 65 -173 0
-149 -30 -185 -161 -193 l-79 -5 0 192 0 191 75 0 c41 0 86 -5 100 -12z"/>
<path d="M22381 3797 c-57 -149 -106 -278 -108 -284 -4 -10 11 -13 55 -13 l60
0 23 65 23 66 115 -3 115 -3 25 -62 24 -63 59 0 c32 0 58 1 58 3 0 2 -49 128
-110 282 -60 153 -110 280 -110 281 0 2 -28 4 -62 4 l-63 0 -104 -273z m208
35 c17 -46 31 -90 31 -98 0 -11 -17 -14 -76 -14 -87 0 -83 -15 -31 128 16 46
33 80 37 75 4 -4 21 -46 39 -91z"/>
<path d="M22900 3785 l0 -285 50 0 50 0 2 223 3 222 55 -222 55 -223 55 0 55
0 57 223 56 222 1 -222 1 -223 55 0 55 0 0 285 0 285 -88 0 -88 0 -49 -190
c-27 -105 -52 -187 -56 -183 -3 5 -28 90 -54 191 l-48 182 -83 0 -84 0 0 -285z"/>
<path d="M23560 3785 l0 -285 60 0 60 0 0 285 0 285 -60 0 -60 0 0 -285z"/>
<path d="M23790 3785 l0 -285 50 0 50 0 2 188 3 187 114 -187 114 -188 59 0
58 0 0 285 0 285 -55 0 -55 0 -2 -186 -3 -187 -113 187 -113 186 -55 0 -54 0
0 -285z"/>
<path d="M8940 3780 l0 -280 200 0 200 0 0 45 0 45 -145 0 -145 0 0 235 0 235
-55 0 -55 0 0 -280z"/>
<path d="M12620 3780 l0 -280 200 0 200 0 0 45 0 45 -145 0 -145 0 0 235 0
235 -55 0 -55 0 0 -280z"/>
<path d="M7834 2944 c-7 -3 -10 -14 -7 -24 5 -17 0 -20 -33 -21 l-39 -2 45 -8
c60 -10 14284 -10 14335 0 39 8 39 9 8 10 -28 1 -33 5 -33 26 l0 25 -7132 -1
c-3923 0 -7138 -3 -7144 -5z"/>
</g>
</svg>
